PathFileType	4	(X/Y/Z)	C:\Users\WrightLab\Desktop\Jo\P5V47.trc
DataRate	CameraRate	NumFrames	NumMarkers	Units	OrigDataRate	OrigDataStartFrame	OrigNumFrames
100.00	100.00	       16	19	mm	100.00	781	       892
Frame#	Time	Headset_Front			Headset_Back			Headset_Left			Headset_Right			Left_Shoulder			Right_Shoulder			Sternum			C7			Left Elbow			Right Elbow			Left Wrist			Right Wrist			Left ASIS			Right ASIS			S2			Left Knee			Right Knee			Left Ankle			Right Ankle			
		X1	Y1	Z1	X2	Y2	Z2	X3	Y3	Z3	X4	Y4	Z4	X5	Y5	Z5	X6	Y6	Z6	X7	Y7	Z7	X8	Y8	Z8	X9	Y9	Z9	X10	Y10	Z10	X11	Y11	Z11	X12	Y12	Z12	X13	Y13	Z13	X14	Y14	Z14	X15	Y15	Z15	X16	Y16	Z16	X17	Y17	Z17	X18	Y18	Z18	X19	Y19	Z19	

781	7.800	-95.44017	1108.92273	1038.21362	-28.62166	1749.95410	1273.41321							-49.66028	1542.07141	1394.60144	113.46886	1494.82678	1028.84338	-34.84938	1361.83386	1178.90149	161.12816	1548.11389	1257.44495	-134.49149	1250.20264	1388.39087	119.11256	1204.43750	980.18298	-104.07478	1209.96094	1159.91858				-100.05663	974.30585	1304.24255	35.74827	984.38324	1053.49939	193.23973	995.97339	1351.72424	-87.78194	537.96527	1385.48474	104.96388	519.29590	1073.94092	-35.80044	131.61066	1451.21179	239.79089	158.77785	1025.14868	
782	7.810	-96.34074	1108.66748	1040.81848	-32.78922	1751.03711	1276.28394							-55.79137	1543.11108	1397.50549	113.12862	1495.31384	1033.78967	-37.38767	1362.50122	1181.51001	157.27350	1548.64124	1263.43030	-140.41904	1251.08337	1389.59985	119.72418	1205.19238	985.25665	-106.65163	1210.42456	1161.21448				-105.27500	975.23456	1306.44995	34.96162	985.04773	1058.17456	188.73752	996.47479	1357.73181	-89.44358	538.11157	1388.19202	102.55980	520.38019	1077.19714	-36.10547	131.35185	1451.39282	239.64081	161.31459	1026.96838	
783	7.820	-96.49966	1109.72437	1043.60242	-36.00552	1751.69116	1279.13000							-61.46353	1544.15942	1398.97388	112.64035	1495.54700	1038.38708	-39.61212	1363.11047	1184.15027	154.13635	1549.97131	1268.21545	-146.21501	1252.13257	1390.57202	120.35963	1205.47241	990.80933	-108.89906	1210.92847	1162.64233				-109.63515	975.63873	1308.54382	34.76146	985.14447	1063.81824	184.99324	998.25696	1364.07336	-91.66341	538.52606	1390.80493	100.15385	521.27155	1078.40747	-36.33852	131.07309	1451.86633	238.33420	164.08842	1028.60669	
784	7.830	-96.74110	1109.99634	1043.39050	-39.70041	1752.35901	1281.95215							-67.04240	1544.96729	1401.08398	111.99745	1496.29260	1042.71631	-41.97122	1363.86707	1186.74011	149.75545	1551.19629	1274.55701	-153.11885	1253.91467	1391.69373	120.73824	1205.98169	996.29681	-110.90088	1211.37097	1169.02502				-114.37489	976.34052	1309.98889	35.27647	986.45642	1068.40100	180.82719	999.67432	1370.65845	-93.17989	538.06769	1393.23633	97.64458	521.73761	1079.30212	-36.48445	130.43364	1452.32019	238.76898	166.26651	1031.09229	
785	7.840	-96.59602	1109.40503	1047.51318	-42.98503	1753.06665	1284.67944							-73.43024	1546.09863	1403.82813	111.94751	1496.97400	1047.74561	-44.40939	1364.61841	1189.11975	146.06392	1551.60083	1278.83118	-159.22284	1255.48352	1392.44543	120.55946	1206.79993	1001.76666	-112.81345	1211.77332	1167.63098				-119.23852	977.27887	1311.56274	35.73399	986.63416	1072.89819	176.47151	1000.56793	1377.05542	-94.57369	537.80951	1395.39026	94.55692	522.98730	1080.63562	-36.59237	129.88789	1452.66602	238.12584	169.43484	1033.90991	
786	7.850	-96.54001	1109.86340	1050.83191	-46.58144	1753.69946	1287.38245							-78.34956	1546.55420	1402.70740	111.80511	1497.25232	1052.14429	-46.61869	1365.28149	1191.43262	142.18874	1552.67981	1283.31470	-164.36845	1256.37000	1393.11316	121.19168	1207.42468	1006.68835	-114.83442	1212.49451	1169.62097				-123.73312	978.09979	1312.85144	35.38722	987.42841	1077.32324	171.97310	1001.52747	1382.51465	-95.94829	537.57129	1397.19849	91.58024	523.57251	1081.26782	-37.01831	129.90352	1452.68079	239.05077	172.23030	1037.64697	
787	7.860	-96.43406	1110.40320	1053.20117	-49.79323	1754.52356	1289.95520							-84.39816	1547.91687	1405.31787	113.54153	1497.97388	1055.28784	-47.58144	1365.50830	1194.34094	138.90070	1554.11902	1288.56348	-170.00319	1257.71472	1393.52563	121.54612	1207.98792	1011.87750	-116.37502	1213.14685	1170.52820				-127.75809	978.81830	1313.83826	35.34860	988.10394	1081.18848	167.79292	1002.69073	1388.56995	-98.79343	538.35577	1399.02783	87.54488	524.92139	1081.88672	-37.26968	129.58527	1453.30054	240.22990	175.62271	1041.27734	
788	7.870	-95.10861	1111.07629	1055.64050	-53.23476	1755.23621	1292.47375							-89.49505	1548.99695	1406.99890	112.41305	1499.26038	1059.74707	-49.73847	1366.30042	1196.58191	135.42508	1555.08533	1294.39673	-174.95691	1258.93213	1394.01099	121.67551	1208.74780	1016.87897	-117.95571	1213.86670	1176.19092				-131.73679	979.70062	1314.83594	35.85223	988.76385	1085.54102	163.85023	1003.98834	1394.88159	-101.17620	538.55701	1400.62793	83.66705	525.89209	1082.93494	-37.34828	128.96423	1453.59631	241.31203	178.16792	1045.91602	
789	7.880	61.04165	1694.48523	1064.97534	-56.53059	1755.77747	1294.94397							-94.80552	1550.22437	1408.68237	111.53768	1499.69983	1064.35376	-51.66198	1366.91931	1198.75903	130.94316	1555.95129	1299.70740	-180.91039	1260.25256	1394.61328	121.70226	1209.01501	1021.91547	-119.99960	1214.25269	1173.60742				-135.71227	980.38306	1315.87085	36.00650	989.60797	1089.48096	158.35733	1005.35693	1401.06604	-103.11588	538.30164	1401.76953	79.65017	527.51801	1083.69592	-37.79172	128.81113	1453.85352	243.18808	181.40242	1051.02478	
790	7.890	57.38977	1695.34863	1067.45972	-59.38160	1755.97571	1297.39526							-99.80310	1550.77490	1409.39380	109.06660	1500.70300	1070.55103	-53.63911	1367.35144	1201.05444	127.26199	1556.84387	1303.18787	-185.09093	1261.14880	1394.89771	122.22118	1209.82141	1026.53687	-121.12653	1214.84265	1175.27014				-139.49860	981.00732	1316.91980	36.65734	990.34827	1093.28125	153.98482	1005.82568	1405.91028	-105.97052	538.80304	1402.66870	75.39912	528.05109	1085.10730	-38.03054	128.39517	1454.42273	244.55769	183.76065	1057.56641	
791	7.900	53.79214	1696.17346	1069.90210	-61.86405	1756.03088	1299.79724							-105.44337	1551.73462	1410.29419	111.76095	1500.48767	1073.39661	-55.44697	1367.81262	1203.36768	124.02334	1557.22864	1307.42334	-190.28510	1262.12585	1395.32581	122.75997	1209.88745	1031.48096	-122.64244	1215.38892	1177.65186				-143.11963	981.63721	1318.07898	37.48062	991.19641	1096.50623	149.64540	1006.47089	1411.74365	-108.29379	538.51196	1403.36145	70.91856	529.05951	1086.20154	-38.10627	128.07545	1454.44385	246.41194	186.31488	1063.88977	
792	7.910	50.12393	1696.57751	1072.44006	-64.95598	1756.46521	1302.05652							-110.11376	1552.22473	1410.44470	109.43015	1501.15759	1079.13538	-57.15924	1368.11731	1205.49292	120.94834	1557.70520	1311.72449	-194.94345	1262.75684	1395.68494	123.64588	1210.43384	1036.03711	-123.73601	1215.82190	1179.35315				-147.13438	982.37671	1319.39453	38.37469	991.96393	1099.82544	143.73727	1007.45227	1417.70850	-111.45036	538.97534	1403.74182	66.40504	529.75311	1087.30408	-38.53917	128.16364	1455.17078	248.07269	188.74525	1070.68311	
793	7.920	46.66610	1697.11108	1074.83252	-67.65607	1756.86292	1304.30823							-115.00602	1553.22144	1412.51465	109.19394	1502.45630	1083.83179	-58.58585	1368.50977	1207.61975	118.23257	1558.23328	1315.52649	-199.41156	1263.34729	1396.03308	124.45407	1210.84509	1040.01172	-124.68773	1216.36853	1180.71326				-151.06992	983.20593	1320.56201	39.29917	992.76642	1102.80396	139.00099	1008.06281	1422.60083	-113.80132	538.85345	1404.25330	62.95829	530.66962	1088.87231	-38.47718	127.80497	1455.92798	250.19580	190.86069	1078.46802	
794	7.930	43.75305	1697.63110	1077.20154	-70.23856	1757.04053	1306.58911							-119.67265	1554.06140	1414.01904	110.90639	1502.46497	1085.88013	-60.11416	1368.84326	1209.46606	114.57569	1559.02100	1320.83704	-203.33504	1263.59607	1396.01038	125.09015	1211.52319	1045.03687	-125.81020	1216.87805	1181.45508				-154.38411	983.51282	1321.39441	39.99110	993.60315	1105.86499	133.94441	1008.58582	1427.33960	-116.59997	538.73175	1404.90747	59.51308	531.77209	1090.25879	-38.49522	127.36059	1456.94055	252.45686	192.60286	1086.74390	
795	7.940	40.50656	1698.21875	1079.54431	-73.19881	1757.16602	1308.84424							-124.17219	1554.12512	1413.06030	112.10049	1502.57288	1090.79309	-61.58075	1369.28210	1211.22327	110.74198	1560.21057	1324.91357	-207.31973	1263.91492	1395.96570	125.32146	1211.87720	1048.85278	-127.03082	1217.29407	1182.43555				-158.68854	983.92535	1322.58557	40.91084	993.88721	1108.95032	130.19759	1010.09039	1432.73743	-119.47882	538.94928	1405.15125	57.34398	533.36206	1092.28711	-39.05073	127.29684	1456.93506	254.05016	194.78230	1095.67297	
796	7.950	37.00075	1698.94531	1081.94702	-76.09526	1757.40625	1311.18164							-128.36455	1554.89978	1414.74683	112.85587	1503.21777	1094.67883	-62.89847	1369.68994	1212.96570	108.06339	1560.21094	1326.75085	-211.23708	1264.42322	1395.81116	125.24102	1212.43884	1053.01111	-128.07883	1217.56812	1182.99438				-162.66841	985.02966	1323.02991	41.72913	994.39441	1111.48071	126.12183	1010.59381	1436.86523	-122.38936	539.19958	1405.67590	55.71391	534.94989	1095.29639	-39.12382	127.11113	1457.52588	255.83800	196.56279	1104.86401	
